<?xml version="1.0" encoding="utf-8"?>
<!-- Generator: Adobe Illustrator 17.0.0, SVG Export Plug-In . SVG Version: 6.00 Build 0)  -->
<!DOCTYPE svg PUBLIC "-//W3C//DTD SVG 1.1//EN" "http://www.w3.org/Graphics/SVG/1.1/DTD/svg11.dtd">
<svg version="1.1" id="Capa_1" xmlns="http://www.w3.org/2000/svg" xmlns:xlink="http://www.w3.org/1999/xlink" x="0px" y="0px"
	 width="612px" height="792px" viewBox="0 0 612 792" enable-background="new 0 0 612 792" xml:space="preserve">
<circle fill="#7EFDCA" cx="306" cy="396" r="306"/>
<path fill="#FAFAFA" d="M396.5,388.656c14.956-15.453,24.25-36.414,24.25-59.594c0-44.179-33.583-80.287-76.5-85.106v-20.081
	c0-10.557-8.568-19.125-19.125-19.125S306,213.318,306,223.875V243h-38.25v-19.125c0-10.557-8.568-19.125-19.125-19.125
	s-19.125,8.568-19.125,19.125V243h-19.125c-10.557,0-19.125,8.568-19.125,19.125v267.75c0,10.557,8.568,19.125,19.125,19.125H229.5
	v19.125c0,10.557,8.568,19.125,19.125,19.125s19.125-8.568,19.125-19.125V549H306v19.125c0,10.557,8.568,19.125,19.125,19.125
	s19.125-8.568,19.125-19.125V549h9.563c47.43,0,86.063-38.594,86.063-86.063C439.875,431.075,422.28,403.573,396.5,388.656z
	 M229.5,281.25h105.188c26.354,0,47.813,21.458,47.813,47.813s-21.458,47.813-47.813,47.813H229.5V281.25z M353.813,510.75H229.5
	v-95.625h105.188h19.125c26.354,0,47.813,21.458,47.813,47.813S380.167,510.75,353.813,510.75z"/>
</svg>
