<svg xmlns="http://www.w3.org/2000/svg" width="102.346" height="98.179" viewBox="0 0 102.346 98.179">
  <g id="Group_8" data-name="Group 8" transform="translate(-160.989 -1396.992)">
    <circle id="Ellipse_1" data-name="Ellipse 1" cx="26.811" cy="26.811" r="26.811" transform="translate(185.357 1421.349)" fill="#6ee1dc"/>
    <g id="bitcoin-logo" transform="translate(203.861 1436.285)">
      <path id="Path_1" data-name="Path 1" d="M81.854,12.063a4.149,4.149,0,0,0-2.418-1.423,3.276,3.276,0,0,0,1.81-3.566,3.523,3.523,0,0,0-.5-1.582A3.166,3.166,0,0,0,79.6,4.415a6.277,6.277,0,0,0-1.562-.622A12.32,12.32,0,0,0,76.1,3.482V0H73.977V3.386q-.553,0-1.686.028V0H70.163V3.482q-.456.014-1.34.014l-2.93-.014V5.749h1.534a1.1,1.1,0,0,1,1.23.94v3.966a1.4,1.4,0,0,1,.221.014h-.221v5.555a.738.738,0,0,1-.8.7H66.322l-.428,2.529h2.764q.263,0,.76.006t.746.007v3.524h2.129V19.512q.58.014,1.686.014v3.468h2.128V19.471a16.544,16.544,0,0,0,2.01-.207,8.182,8.182,0,0,0,1.679-.477,4.531,4.531,0,0,0,1.34-.808,3.815,3.815,0,0,0,.892-1.23,5.228,5.228,0,0,0,.449-1.728A4.094,4.094,0,0,0,81.854,12.063ZM72.333,5.9l.546-.007.746-.014q.3-.007.8.035a7.626,7.626,0,0,1,.85.111,4.734,4.734,0,0,1,.76.228,2.06,2.06,0,0,1,.663.387,1.919,1.919,0,0,1,.421.58,1.812,1.812,0,0,1,.173.808,1.922,1.922,0,0,1-.124.7,1.328,1.328,0,0,1-.373.532,3.78,3.78,0,0,1-.511.373,2.342,2.342,0,0,1-.67.256q-.407.1-.711.152a5.825,5.825,0,0,1-.76.076q-.456.021-.691.028t-.643,0l-.477-.007V5.9h0Zm5.811,9.411a1.965,1.965,0,0,1-.339.553,1.919,1.919,0,0,1-.546.414,4.682,4.682,0,0,1-.656.29,5.282,5.282,0,0,1-.767.194q-.45.083-.788.117t-.808.055q-.47.02-.732.021t-.663-.007l-.511-.007V12.271q.11,0,.656-.014t.891-.014q.345,0,.954.041a8.148,8.148,0,0,1,1.023.124,6.723,6.723,0,0,1,.905.256,2.625,2.625,0,0,1,.795.421,2.074,2.074,0,0,1,.511.636,1.974,1.974,0,0,1,.076,1.589Z" transform="translate(-65.893)" fill="#fff"/>
    </g>
    <g id="back-arrow" transform="translate(231.429 1396.992)">
      <g id="Group_7" data-name="Group 7" transform="translate(0)">
        <path id="Path_3151" data-name="Path 3151" d="M12.541,6.868V1.139A1.14,1.14,0,0,0,10.554.377L.3,11.772a1.14,1.14,0,0,0-.035,1.481L10.519,25.789a1.14,1.14,0,0,0,2.022-.719V19.391c9,.293,14.62,4.141,17.152,11.737a1.139,1.139,0,0,0,1.08.778,1.1,1.1,0,0,0,.183-.015,1.14,1.14,0,0,0,.956-1.125C31.913,17.348,23.835,7.49,12.541,6.868Z" transform="translate(-0.007 0)" fill="#7dfcca"/>
      </g>
    </g>
    <g id="back-arrow-2" data-name="back-arrow" transform="translate(161.001 1428.898) rotate(-90)">
      <g id="Group_7-2" data-name="Group 7" transform="translate(0 0)">
        <path id="Path_3151-2" data-name="Path 3151" d="M12.534,6.868V1.139A1.14,1.14,0,0,0,10.547.377L.292,11.772a1.14,1.14,0,0,0-.035,1.481L10.512,25.789a1.14,1.14,0,0,0,2.022-.719V19.391c9,.293,14.62,4.141,17.152,11.737a1.139,1.139,0,0,0,1.08.778,1.1,1.1,0,0,0,.183-.015,1.14,1.14,0,0,0,.956-1.125C31.906,17.348,23.828,7.49,12.534,6.868Z" transform="translate(0 0)" fill="#7dfcca"/>
      </g>
    </g>
    <g id="back-arrow-3" data-name="back-arrow" transform="translate(192.895 1495.171) rotate(180)">
      <g id="Group_7-3" data-name="Group 7" transform="translate(0 0)">
        <path id="Path_3151-3" data-name="Path 3151" d="M12.534,6.868V1.139A1.14,1.14,0,0,0,10.547.377L.292,11.772a1.14,1.14,0,0,0-.035,1.481L10.512,25.789a1.14,1.14,0,0,0,2.022-.719V19.391c9,.293,14.62,4.141,17.152,11.737a1.139,1.139,0,0,0,1.08.778,1.1,1.1,0,0,0,.183-.015,1.14,1.14,0,0,0,.956-1.125C31.906,17.348,23.828,7.49,12.534,6.868Z" transform="translate(0 0)" fill="#7dfcca"/>
      </g>
    </g>
    <g id="back-arrow-4" data-name="back-arrow" transform="translate(263.335 1463.265) rotate(90)">
      <g id="Group_7-4" data-name="Group 7" transform="translate(0 0)">
        <path id="Path_3151-4" data-name="Path 3151" d="M12.534,6.868V1.139A1.14,1.14,0,0,0,10.547.377L.292,11.772a1.14,1.14,0,0,0-.035,1.481L10.512,25.789a1.14,1.14,0,0,0,2.022-.719V19.391c9,.293,14.62,4.141,17.152,11.737a1.139,1.139,0,0,0,1.08.778,1.1,1.1,0,0,0,.183-.015,1.14,1.14,0,0,0,.956-1.125C31.906,17.348,23.828,7.49,12.534,6.868Z" transform="translate(0 0)" fill="#7dfcca"/>
      </g>
    </g>
  </g>
</svg>
