<svg xmlns="http://www.w3.org/2000/svg" width="77.929" height="101.784" viewBox="0 0 77.929 101.784">
  <g id="Group_10" data-name="Group 10" transform="translate(-1073.071 -1543)">
    <g id="checklist" transform="translate(1013.073 1543)">
      <path id="Path_3152" data-name="Path 3152" d="M179.315,215.618a19.027,19.027,0,1,0,19.027,19.027A19.049,19.049,0,0,0,179.315,215.618Zm-3.073,29.736-10.3-10.185,4.193-4.241,6.266,6.2,12.179-11.151,4.027,4.4Z" transform="translate(-80.352 -172.753)" fill="#6ee1dc"/>
      <path id="Path_3153" data-name="Path 3153" d="M190.286,8.38H178.007l-.673-2.053a9.193,9.193,0,0,0-17.469,0l-.673,2.053H146.914v9.926h43.372Z" transform="translate(-69.637)" fill="#7dfcca"/>
      <path id="Path_3154" data-name="Path 3154" d="M126.612,66.495V77.546h-55.3V66.495H60V155.06h77.929V66.495Zm-27.65,73.663a24.991,24.991,0,1,1,24.991-24.991A25.019,25.019,0,0,1,98.963,140.158Z" transform="translate(0 -53.276)" fill="#6ee1dc"/>
    </g>
    <circle id="Ellipse_212" data-name="Ellipse 212" cx="26.5" cy="26.5" r="26.5" transform="translate(1086 1578)" fill="#7dfcca"/>
    <path id="Union_5" data-name="Union 5" d="M-2922.359,16.3-2929,9.66l3.622-3.623,6.641,6.64L-2906.059,0l3.622,3.623-16.3,16.3Z" transform="translate(4028.218 1594.539)" fill="#fff"/>
  </g>
</svg>
