<svg xmlns="http://www.w3.org/2000/svg" width="98.042" height="98.042" viewBox="0 0 98.042 98.042">
  <g id="customer-review" transform="translate(0)">
    <path id="Path_3139" data-name="Path 3139" d="M211,249.617A8.617,8.617,0,1,0,219.617,241,8.627,8.627,0,0,0,211,249.617Zm0,0" transform="translate(-170.596 -194.851)" fill="#6ee1dc"/>
    <path id="Path_3140" data-name="Path 3140" d="M183.234,361A17.253,17.253,0,0,0,166,378.234v11.681h34.468V378.234A17.253,17.253,0,0,0,183.234,361Zm0,0" transform="translate(-134.213 -291.872)" fill="#6ee1dc"/>
    <path id="Path_3141" data-name="Path 3141" d="M63.234,279.617a8.617,8.617,0,1,0-8.617,8.617A8.627,8.627,0,0,0,63.234,279.617Zm0,0" transform="translate(-37.192 -219.106)" fill="#6ee1dc"/>
    <path id="Path_3142" data-name="Path 3142" d="M393.234,279.617a8.617,8.617,0,1,0-8.617,8.617A8.627,8.627,0,0,0,393.234,279.617Zm0,0" transform="translate(-304 -219.106)" fill="#6ee1dc"/>
    <path id="Path_3143" data-name="Path 3143" d="M14.553,0l-4.37,10.3L0,11.738l7.345,6.977-1.689,10.2,8.9-4.65,8.9,4.65-1.689-10.2,7.153-6.977L19.03,10.3Zm0,0" transform="translate(0)" fill="#7dfcca"/>
    <path id="Path_3144" data-name="Path 3144" d="M199.839,10.3,195.362,0l-4.37,10.3L181,11.738l7.153,6.977-1.689,10.2,8.9-4.65,8.9,4.65-1.689-10.2,7.153-6.977Zm0,0" transform="translate(-146.341)" fill="#7dfcca"/>
    <path id="Path_3145" data-name="Path 3145" d="M375.362,0l-4.37,10.3L361,11.738l7.153,6.977-1.689,10.2,8.9-4.65,8.9,4.65-1.689-10.2,7.345-6.977L379.839,10.3Zm0,0" transform="translate(-291.872)" fill="#7dfcca"/>
    <path id="Path_3146" data-name="Path 3146" d="M378.07,391a17.09,17.09,0,0,0-10.168,3.382,22.749,22.749,0,0,1,1.551,8.108V414.17H395.5v-5.936A17.4,17.4,0,0,0,378.07,391Zm0,0" transform="translate(-297.453 -316.128)" fill="#6ee1dc"/>
    <path id="Path_3147" data-name="Path 3147" d="M0,408.234v5.936H26.042V402.489a22.749,22.749,0,0,1,1.551-8.108A17.09,17.09,0,0,0,17.425,391,17.4,17.4,0,0,0,0,408.234Zm0,0" transform="translate(0 -316.128)" fill="#6ee1dc"/>
  </g>
</svg>
