<svg xmlns="http://www.w3.org/2000/svg" width="161" height="66" viewBox="0 0 161 66">
  <g id="Group_11" data-name="Group 11" transform="translate(-1369 -1606)">
    <rect id="Rectangle_224" data-name="Rectangle 224" width="105" height="66" rx="22" transform="translate(1397 1606)" fill="#7dfcca"/>
    <g id="Rectangle_223" data-name="Rectangle 223" transform="translate(1369 1617)" fill="#6ee1dc" stroke="#fff" stroke-width="4">
      <rect width="161" height="44" rx="22" stroke="none"/>
      <rect x="2" y="2" width="157" height="40" rx="20" fill="none"/>
    </g>
    <g id="Group_9" data-name="Group 9" transform="translate(1388.736 1627.014)">
      <path id="Path_3155" data-name="Path 3155" d="M371.33,0l-3.143,7.41L361,8.443l5.145,5.018L364.93,20.8l6.4-3.345,6.4,3.345-1.215-7.337L381.8,8.443,374.55,7.41Zm0,0" transform="translate(-361)" fill="#fff"/>
      <path id="Path_3156" data-name="Path 3156" d="M371.33,0l-3.143,7.41L361,8.443l5.145,5.018L364.93,20.8l6.4-3.345,6.4,3.345-1.215-7.337L381.8,8.443,374.55,7.41Zm0,0" transform="translate(-336.006)" fill="#fff"/>
      <path id="Path_3157" data-name="Path 3157" d="M371.33,0l-3.143,7.41L361,8.443l5.145,5.018L364.93,20.8l6.4-3.345,6.4,3.345-1.215-7.337L381.8,8.443,374.55,7.41Zm0,0" transform="translate(-311.013)" fill="#fff"/>
      <path id="Path_3158" data-name="Path 3158" d="M371.33,0l-3.143,7.41L361,8.443l5.145,5.018L364.93,20.8l6.4-3.345,6.4,3.345-1.215-7.337L381.8,8.443,374.55,7.41Zm0,0" transform="translate(-286.019)" fill="#fff"/>
      <path id="Path_3159" data-name="Path 3159" d="M371.33,0l-3.143,7.41L361,8.443l5.145,5.018L364.93,20.8l6.4-3.345,6.4,3.345-1.215-7.337L381.8,8.443,374.55,7.41Zm0,0" transform="translate(-261.025)" fill="#fff"/>
    </g>
  </g>
</svg>
